Coordinates
version=1
nRows=14
nColumns=36
inDegrees=yes

Units are S.I. units (second, meters, Newtons, ...)
If the header above contains a line with 'inDegrees', this indicates whether rotational values are in degrees (yes) or radians (no).

endheader
time	pelvis_tilt	pelvis_list	pelvis_rotation	pelvis_tx	pelvis_ty	pelvis_tz	hip_flexion_r	hip_adduction_r	hip_rotation_r	knee_angle_r	knee_angle_r_beta	ankle_angle_r	subtalar_angle_r	mtp_angle_r	hip_flexion_l	hip_adduction_l	hip_rotation_l	knee_angle_l	knee_angle_l_beta	ankle_angle_l	subtalar_angle_l	mtp_angle_l	lumbar_extension	lumbar_bending	lumbar_rotation	arm_flex_r	arm_add_r	arm_rot_r	elbow_flex_r	pro_sup_r	arm_flex_l	arm_add_l	arm_rot_l	elbow_flex_l	pro_sup_l
      1.11000000	    -19.22084549	     -2.31540464	      3.00315108	     -0.63442991	      1.44884844	     -0.60436098	     23.54646257	     -0.50068732	     -1.55812485	     25.41471798	      0.44357051	    -27.80299756	    -17.11190229	     -4.45676337	     24.20724598	     -3.04357404	     -3.25782409	     29.94016956	      0.52255454	    -25.80354433	     -2.65276931	     -4.45676337	     -6.80624336	      2.04114393	     -2.18402960	    -34.25895786	    -14.44171800	    -16.51026247	     54.26005576	    106.83505447	    -39.11610806	    -17.10878047	    -10.57115534	     66.63094524	    112.04509990
      1.12000000	    -19.40821063	     -2.38263712	      2.96856953	     -0.62658913	      1.44968629	     -0.60414466	     24.31753002	     -0.42404031	     -1.63647773	     24.39816734	      0.42582835	    -27.43929697	    -17.09557009	     -4.46652665	     24.98723775	     -3.10633035	     -3.32323799	     28.86276780	      0.50375033	    -25.08747937	     -2.74567998	     -4.46652665	     -7.49376458	      2.03986856	     -2.10343798	    -34.91403140	    -14.38603226	    -16.59816781	     54.20800355	    106.84521155	    -39.85026439	    -17.26179471	    -10.78158054	     66.59674216	    112.01085364
      1.13000000	    -19.50902518	     -2.51011475	      2.91993746	     -0.61872149	      1.44962950	     -0.60386654	     24.91956367	     -0.26870411	     -1.57558367	     23.19889096	      0.40489703	    -26.37573825	    -16.02096135	     -4.53392769	     25.63455364	     -3.23985765	     -3.19591994	     27.78735529	      0.48498084	    -23.06667087	     -1.96227330	     -4.53392769	     -8.32421652	      2.11788091	     -2.07096772	    -35.57002761	    -14.29364515	    -16.99259567	     54.32818905	    106.95410211	    -40.61235324	    -17.20823392	    -11.44873993	     66.71767917	    111.86394104
      1.14000000	    -19.80564594	     -2.59224665	      2.81513004	     -0.61085747	      1.44835729	     -0.60354702	     25.75072160	     -0.12479407	     -1.34990969	     21.98157914	      0.38365093	    -25.83392000	    -15.53184234	     -4.55977387	     26.44765278	     -3.31896730	     -3.14436803	     26.53637776	      0.46314716	    -22.20765412	     -1.79666557	     -4.55977387	     -8.89558034	      2.15407222	     -1.91622859	    -36.28154976	    -14.25707610	    -17.04390508	     54.28111809	    106.99396942	    -41.32058489	    -17.27628880	    -11.74834713	     66.61642985	    111.81470128
      1.15000000	    -20.02613103	     -2.70459000	      2.73608060	     -0.60288734	      1.44622750	     -0.60327680	     26.51780017	     -0.02640975	     -1.52501818	     20.79898436	      0.36301076	    -24.70396367	    -14.15277212	     -4.64284125	     27.21013497	     -3.50756850	     -3.30715620	     25.33323415	      0.44214835	    -21.09897000	     -0.98196304	     -4.64284125	     -9.56054487	      2.20203935	     -1.88361529	    -36.94815245	    -14.30861993	    -17.09801779	     54.23182252	    107.11519655	    -42.00980290	    -17.22469473	    -12.28591700	     66.50484299	    111.75973124
      1.16000000	    -20.35696106	     -2.80470404	      2.66563065	     -0.59497271	      1.44302557	     -0.60291076	     27.38147127	      0.10916121	     -1.50571687	     19.53706306	      0.34098608	    -24.46413496	    -13.64000922	     -4.66263878	     28.07835234	     -3.62350388	     -3.28314341	     24.05422357	      0.41982540	    -20.71286856	     -0.84673093	     -4.66263878	    -10.07372389	      2.23265195	     -1.77479739	    -37.68906136	    -14.28686637	    -17.04858390	     54.15113652	    107.15447986	    -42.64604296	    -17.24162763	    -12.59590769	     66.37411461	    111.72835929
      1.17000000	    -20.64013096	     -2.93347844	      2.68228786	     -0.58695317	      1.43893127	     -0.60277759	     28.17194888	      0.18744692	     -1.70920962	     18.26091572	      0.31871310	    -24.20054877	    -12.38163297	     -4.70175230	     28.93340014	     -3.73603005	     -3.24984038	     22.81391851	      0.39817799	    -20.56244029	     -0.54265330	     -4.70175230	    -10.62134638	      2.32115522	     -1.81223685	    -38.36229757	    -14.34540400	    -16.92767309	     54.01916960	    107.26140466	    -43.28331111	    -17.12262170	    -13.10247898	     66.16590931	    111.69719178
      1.18000000	    -21.00504860	     -3.03082049	      2.69782824	     -0.57884885	      1.43374043	     -0.60269151	     29.02876995	      0.22646396	     -1.80220216	     16.96956730	      0.29617482	    -24.04298001	    -11.14681591	     -4.74211659	     29.86386285	     -3.79564323	     -3.15377333	     21.56681008	      0.37641184	    -20.83341450	     -0.32050053	     -4.74211659	    -11.03511365	      2.36230215	     -1.83919256	    -39.08689936	    -14.40740262	    -16.77430657	     53.81435035	    107.31365699	    -43.94062431	    -17.00064147	    -13.55234095	     66.00810867	    111.58779185
      1.19000000	    -21.41222904	     -3.12462303	      2.69973133	     -0.57071227	      1.42752149	     -0.60255306	     29.90632660	      0.26908574	     -1.82581510	     15.65609940	      0.27325048	    -24.07387836	    -10.21169002	     -4.76719684	     30.84188950	     -3.86679316	     -3.07428892	     20.35296122	      0.35522619	    -21.28833041	     -0.08459129	     -4.76719684	    -11.38272282	      2.39890260	     -1.80251801	    -39.86323268	    -14.40407173	    -16.63666710	     53.60928190	    107.31921159	    -44.56325725	    -16.90391392	    -13.89638435	     65.89066343	    111.44901207
      1.20000000	    -21.78190797	     -3.21310432	      2.70004301	     -0.56247926	      1.42035874	     -0.60241848	     30.76694546	      0.27504443	     -2.09428223	     14.40142760	      0.25135233	    -24.18702222	     -8.89396888	     -4.81195043	     31.77802200	     -3.95189975	     -3.04606417	     19.14666094	      0.33417227	    -22.24472876	     -0.00663596	     -4.81195043	    -11.74645069	      2.41567532	     -1.86849922	    -40.55643131	    -14.49681139	    -16.37672959	     53.30783868	    107.41576100	    -45.21148302	    -16.71169178	    -14.33729656	     65.68728190	    111.30356759
      1.21000000	    -22.19493764	     -3.28409249	      2.65828408	     -0.55420112	      1.41200930	     -0.60215747	     31.68048506	      0.31639434	     -2.21493772	     13.18749141	      0.23016515	    -24.35843762	     -8.03568852	     -4.83639868	     32.76712121	     -4.06152088	     -3.06242643	     18.04266999	      0.31490400	    -23.01085239	      0.23634108	     -4.83639868	    -12.01902879	      2.40303808	     -1.83544468	    -41.39466823	    -14.48119034	    -16.24795069	     53.10402976	    107.44316601	    -45.88089184	    -16.58238202	    -14.57698060	     65.53784079	    111.23347130
      1.22000000	    -22.63044527	     -3.35543813	      2.64733459	     -0.54594255	      1.40263210	     -0.60188796	     32.63439816	      0.32769062	     -2.50128575	     12.02197994	      0.20982313	    -24.63736399	     -7.01501767	     -4.86720652	     33.80227449	     -4.15922823	     -3.00799889	     16.98045616	      0.29636487	    -24.04856005	      0.42331932	     -4.86720652	    -12.24420441	      2.38860265	     -1.87651350	    -42.18838326	    -14.44779378	    -16.10551308	     52.86362662	    107.48292478	    -46.54670818	    -16.44008575	    -14.86402796	     65.32280436	    111.22448129
      1.23000000	    -23.04298979	     -3.43299944	      2.69722840	     -0.53778118	      1.39228078	     -0.60169577	     33.60270001	      0.30067090	     -2.79982414	     10.97708474	      0.19158627	    -24.87967351	     -6.14372036	     -4.89635146	     34.86481660	     -4.23137103	     -2.82365938	     16.06334222	      0.28035821	    -24.85358432	      0.56678024	     -4.89635146	    -12.50439802	      2.38665922	     -1.91820407	    -43.02452038	    -14.37704708	    -15.95929742	     52.58863551	    107.49253636	    -47.18591856	    -16.30091739	    -15.14701852	     65.17963570	    111.21802754
      1.24000000	    -23.33702662	     -3.45534522	      2.70545258	     -0.52948025	      1.38108463	     -0.60140059	     34.47630387	      0.26145388	     -3.18119915	     10.03622594	      0.17516519	    -24.90460818	     -5.79374395	     -4.90760684	     35.80514931	     -4.31467736	     -2.93338596	     15.27499973	      0.26659904	    -25.00918918	      0.64101040	     -4.90760684	    -12.91728037	      2.30271186	     -1.88294208	    -43.85799057	    -14.22471326	    -15.85677512	     52.37596624	    107.45001732	    -47.76733366	    -16.23429813	    -15.32470676	     65.05563883	    111.14164587
